<?xml version="1.0" encoding="UTF-8"?>
<svg width="42px" height="43px" viewBox="0 0 42 43" version="1.1" xmlns="http://www.w3.org/2000/svg" xmlns:xlink="http://www.w3.org/1999/xlink">
    <title>1@3x</title>
    <defs>
        <linearGradient x1="7.5676312%" y1="24.896576%" x2="87.8247455%" y2="83.4093037%" id="linearGradient-1">
            <stop stop-color="#AA1BFF" offset="0%"></stop>
            <stop stop-color="#5E2DFF" offset="100%"></stop>
        </linearGradient>
        <linearGradient x1="93.4017693%" y1="5.55224616%" x2="0%" y2="100%" id="linearGradient-2">
            <stop stop-color="#FFFFFF" offset="0%"></stop>
            <stop stop-color="#9365BC" stop-opacity="0" offset="49.1314387%"></stop>
            <stop stop-color="#FFFFFF" offset="100%"></stop>
        </linearGradient>
        <polygon id="path-3" points="0 0 9.80712651 9.13408842 19.614253 0 19.614253 18.2681768 9.80712651 11.6252034 0 18.2681768"></polygon>
        <filter x="-45.9%" y="-63.5%" width="191.8%" height="222.4%" filterUnits="objectBoundingBox" id="filter-4">
            <feMorphology radius="1" operator="dilate" in="SourceAlpha" result="shadowSpreadOuter1"></feMorphology>
            <feOffset dx="0" dy="0" in="shadowSpreadOuter1" result="shadowOffsetOuter1"></feOffset>
            <feGaussianBlur stdDeviation="2" in="shadowOffsetOuter1" result="shadowBlurOuter1"></feGaussianBlur>
            <feColorMatrix values="0 0 0 0 0.447058824   0 0 0 0 0.231372549   0 0 0 0 0.678431373  0 0 0 0.229430726 0" type="matrix" in="shadowBlurOuter1"></feColorMatrix>
        </filter>
        <polygon id="path-5" points="0 -5.89438375e-15 9.80712651 18.2681768 19.614253 0 9.80712651 9.13408842"></polygon>
        <filter x="-73.8%" y="-91.4%" width="247.6%" height="252.9%" filterUnits="objectBoundingBox" id="filter-6">
            <feMorphology radius="1" operator="dilate" in="SourceAlpha" result="shadowSpreadOuter1"></feMorphology>
            <feOffset dx="0" dy="0" in="shadowSpreadOuter1" result="shadowOffsetOuter1"></feOffset>
            <feGaussianBlur stdDeviation="2" in="shadowOffsetOuter1" result="shadowBlurOuter1"></feGaussianBlur>
            <feColorMatrix values="0 0 0 0 0.447058824   0 0 0 0 0.231372549   0 0 0 0 0.678431373  0 0 0 0.229430726 0" type="matrix" in="shadowBlurOuter1"></feColorMatrix>
        </filter>
    </defs>
    <g id="1" stroke="none" stroke-width="1" fill="none" fill-rule="evenodd">
        <g id="活动页面3-日" transform="translate(-24.000000, -80.000000)">
            <g id="home-选中" transform="translate(0.000000, 60.000000)">
                <g id="编组-31" transform="translate(0.000000, 13.000000)">
                    <g id="1" transform="translate(16.000000, 0.000000)">
                        <path d="M49,27 L49,31 C49,40.9411255 40.9411255,49 31,49 L27,49 C17.0588745,49 9,40.9411255 9,31 L9,27 C9,17.0588745 17.0588745,9 27,9 L31,9 C40.9411255,9 49,17.0588745 49,27 Z" id="主底色" fill="url(#linearGradient-1)" transform="translate(29.000000, 29.000000) rotate(45.000000) translate(-29.000000, -29.000000) "></path>
                        <path d="M30,11.25 C34.6253848,11.25 38.8128848,13.1248076 41.8440386,16.1559614 C44.8751924,19.1871152 46.75,23.3746152 46.75,28 L46.75,28 L46.75,30 C46.75,34.6253848 44.8751924,38.8128848 41.8440386,41.8440386 C38.8128848,44.8751924 34.6253848,46.75 30,46.75 L30,46.75 L28,46.75 C23.3746152,46.75 19.1871152,44.8751924 16.1559614,41.8440386 C13.1248076,38.8128848 11.25,34.6253848 11.25,30 L11.25,30 L11.25,28 C11.25,23.3746152 13.1248076,19.1871152 16.1559614,16.1559614 C19.1871152,13.1248076 23.3746152,11.25 28,11.25 L28,11.25 Z" id="外框" stroke="url(#linearGradient-2)" stroke-width="2.5" transform="translate(29.000000, 29.000000) rotate(45.000000) translate(-29.000000, -29.000000) "></path>
                        <path d="M31,10 C35.6944204,10 39.9444204,11.9027898 43.0208153,14.9791847 C46.0972102,18.0555796 48,22.3055796 48,27 L48,27 L48,31 C48,35.6944204 46.0972102,39.9444204 43.0208153,43.0208153 C39.9444204,46.0972102 35.6944204,48 31,48 L31,48 L27,48 C22.3055796,48 18.0555796,46.0972102 14.9791847,43.0208153 C11.9027898,39.9444204 10,35.6944204 10,31 L10,31 L10,27 C10,22.3055796 11.9027898,18.0555796 14.9791847,14.9791847 C18.0555796,11.9027898 22.3055796,10 27,10 L27,10 Z" id="外框" stroke="#271063" stroke-width="2" transform="translate(29.000000, 29.000000) rotate(45.000000) translate(-29.000000, -29.000000) "></path>
                        <g id="主icon" transform="translate(19.000000, 20.000000)" fill-rule="nonzero">
                            <g id="矩形">
                                <use fill="black" fill-opacity="1" filter="url(#filter-4)" xlink:href="#path-3"></use>
                                <use fill="#FFFFFF" xlink:href="#path-3"></use>
                            </g>
                            <g id="路径-25">
                                <use fill="black" fill-opacity="1" filter="url(#filter-6)" xlink:href="#path-5"></use>
                                <use fill="#FFFFFF" xlink:href="#path-5"></use>
                            </g>
                        </g>
                    </g>
                </g>
            </g>
        </g>
    </g>
</svg>